<mxfile host="app.diagrams.net" modified="2024-07-23T10:58:32.700Z" agent="Mozilla/5.0 (Macintosh; Intel Mac OS X 10_15_7) AppleWebKit/537.36 (KHTML, like Gecko) Chrome/125.0.0.0 Safari/537.36" etag="2adn5NAV9LI7Y0XfBkxh" version="24.7.3" type="github" pages="4">
  <diagram name="fcnn" id="sfRqCM7jmapI6OrAoU3U">
    <mxGraphModel dx="787" dy="527" grid="1" gridSize="10" guides="1" tooltips="1" connect="1" arrows="1" fold="1" page="1" pageScale="1" pageWidth="827" pageHeight="1169" math="1" shadow="0">
      <root>
        <mxCell id="0" />
        <mxCell id="1" parent="0" />
        <mxCell id="tAWQQP1TaSpEDtEkSpzn-95" value="" style="rounded=1;whiteSpace=wrap;html=1;fillColor=#ffe6cc;strokeColor=#d79b00;dashed=1;dashPattern=12 12;" parent="1" vertex="1">
          <mxGeometry x="230" y="180" width="180" height="200" as="geometry" />
        </mxCell>
        <mxCell id="tAWQQP1TaSpEDtEkSpzn-93" value="" style="rounded=1;whiteSpace=wrap;html=1;fillColor=#d5e8d4;strokeColor=#82b366;" parent="1" vertex="1">
          <mxGeometry x="470" y="230" width="60" height="100" as="geometry" />
        </mxCell>
        <mxCell id="tAWQQP1TaSpEDtEkSpzn-91" value="" style="rounded=1;whiteSpace=wrap;html=1;fillColor=#dae8fc;strokeColor=#6c8ebf;" parent="1" vertex="1">
          <mxGeometry x="110" y="150" width="60" height="260" as="geometry" />
        </mxCell>
        <mxCell id="tAWQQP1TaSpEDtEkSpzn-1" value="$$x_1$$" style="ellipse;whiteSpace=wrap;html=1;aspect=fixed;" parent="1" vertex="1">
          <mxGeometry x="120" y="160" width="40" height="40" as="geometry" />
        </mxCell>
        <mxCell id="tAWQQP1TaSpEDtEkSpzn-2" value="$$x_2$$" style="ellipse;whiteSpace=wrap;html=1;aspect=fixed;" parent="1" vertex="1">
          <mxGeometry x="120" y="210" width="40" height="40" as="geometry" />
        </mxCell>
        <mxCell id="tAWQQP1TaSpEDtEkSpzn-3" value="$$x_3$$" style="ellipse;whiteSpace=wrap;html=1;aspect=fixed;" parent="1" vertex="1">
          <mxGeometry x="120" y="260" width="40" height="40" as="geometry" />
        </mxCell>
        <mxCell id="tAWQQP1TaSpEDtEkSpzn-4" value="$$x_n$$" style="ellipse;whiteSpace=wrap;html=1;aspect=fixed;" parent="1" vertex="1">
          <mxGeometry x="120" y="360" width="40" height="40" as="geometry" />
        </mxCell>
        <mxCell id="tAWQQP1TaSpEDtEkSpzn-5" value="" style="endArrow=none;dashed=1;html=1;dashPattern=1 3;strokeWidth=2;rounded=0;" parent="1" edge="1">
          <mxGeometry width="50" height="50" relative="1" as="geometry">
            <mxPoint x="140" y="350" as="sourcePoint" />
            <mxPoint x="140" y="310" as="targetPoint" />
          </mxGeometry>
        </mxCell>
        <mxCell id="tAWQQP1TaSpEDtEkSpzn-7" value="$$h_1^1$$" style="ellipse;whiteSpace=wrap;html=1;aspect=fixed;" parent="1" vertex="1">
          <mxGeometry x="240" y="185" width="40" height="40" as="geometry" />
        </mxCell>
        <mxCell id="tAWQQP1TaSpEDtEkSpzn-8" value="$$h_2^1$$" style="ellipse;whiteSpace=wrap;html=1;aspect=fixed;" parent="1" vertex="1">
          <mxGeometry x="240" y="235" width="40" height="40" as="geometry" />
        </mxCell>
        <mxCell id="tAWQQP1TaSpEDtEkSpzn-9" value="$$h_3^1$$" style="ellipse;whiteSpace=wrap;html=1;aspect=fixed;" parent="1" vertex="1">
          <mxGeometry x="240" y="285" width="40" height="40" as="geometry" />
        </mxCell>
        <mxCell id="tAWQQP1TaSpEDtEkSpzn-13" value="$$\hat{y}_1$$" style="ellipse;whiteSpace=wrap;html=1;aspect=fixed;" parent="1" vertex="1">
          <mxGeometry x="480" y="235" width="40" height="40" as="geometry" />
        </mxCell>
        <mxCell id="tAWQQP1TaSpEDtEkSpzn-14" value="$$\hat{y}_2$$" style="ellipse;whiteSpace=wrap;html=1;aspect=fixed;" parent="1" vertex="1">
          <mxGeometry x="480" y="285" width="40" height="40" as="geometry" />
        </mxCell>
        <mxCell id="tAWQQP1TaSpEDtEkSpzn-20" value="$$h_4^1$$" style="ellipse;whiteSpace=wrap;html=1;aspect=fixed;" parent="1" vertex="1">
          <mxGeometry x="240" y="335" width="40" height="40" as="geometry" />
        </mxCell>
        <mxCell id="tAWQQP1TaSpEDtEkSpzn-21" value="$$h_1^2$$" style="ellipse;whiteSpace=wrap;html=1;aspect=fixed;" parent="1" vertex="1">
          <mxGeometry x="360" y="185" width="40" height="40" as="geometry" />
        </mxCell>
        <mxCell id="tAWQQP1TaSpEDtEkSpzn-22" value="$$h_2^2$$" style="ellipse;whiteSpace=wrap;html=1;aspect=fixed;" parent="1" vertex="1">
          <mxGeometry x="360" y="235" width="40" height="40" as="geometry" />
        </mxCell>
        <mxCell id="tAWQQP1TaSpEDtEkSpzn-23" value="$$h_3^2$$" style="ellipse;whiteSpace=wrap;html=1;aspect=fixed;" parent="1" vertex="1">
          <mxGeometry x="360" y="285" width="40" height="40" as="geometry" />
        </mxCell>
        <mxCell id="tAWQQP1TaSpEDtEkSpzn-24" value="$$h_4^2$$" style="ellipse;whiteSpace=wrap;html=1;aspect=fixed;" parent="1" vertex="1">
          <mxGeometry x="360" y="335" width="40" height="40" as="geometry" />
        </mxCell>
        <mxCell id="tAWQQP1TaSpEDtEkSpzn-25" value="" style="endArrow=none;html=1;rounded=0;exitX=1;exitY=0.5;exitDx=0;exitDy=0;entryX=0;entryY=0.5;entryDx=0;entryDy=0;" parent="1" source="tAWQQP1TaSpEDtEkSpzn-1" target="tAWQQP1TaSpEDtEkSpzn-7" edge="1">
          <mxGeometry width="50" height="50" relative="1" as="geometry">
            <mxPoint x="310" y="350" as="sourcePoint" />
            <mxPoint x="360" y="300" as="targetPoint" />
          </mxGeometry>
        </mxCell>
        <mxCell id="tAWQQP1TaSpEDtEkSpzn-26" value="" style="endArrow=none;html=1;rounded=0;exitX=1;exitY=0.5;exitDx=0;exitDy=0;entryX=0;entryY=0.5;entryDx=0;entryDy=0;" parent="1" source="tAWQQP1TaSpEDtEkSpzn-1" target="tAWQQP1TaSpEDtEkSpzn-8" edge="1">
          <mxGeometry width="50" height="50" relative="1" as="geometry">
            <mxPoint x="170" y="190" as="sourcePoint" />
            <mxPoint x="250" y="215" as="targetPoint" />
          </mxGeometry>
        </mxCell>
        <mxCell id="tAWQQP1TaSpEDtEkSpzn-27" value="" style="endArrow=none;html=1;rounded=0;exitX=1;exitY=0.5;exitDx=0;exitDy=0;entryX=0;entryY=0.5;entryDx=0;entryDy=0;" parent="1" source="tAWQQP1TaSpEDtEkSpzn-1" target="tAWQQP1TaSpEDtEkSpzn-9" edge="1">
          <mxGeometry width="50" height="50" relative="1" as="geometry">
            <mxPoint x="170" y="190" as="sourcePoint" />
            <mxPoint x="250" y="265" as="targetPoint" />
          </mxGeometry>
        </mxCell>
        <mxCell id="tAWQQP1TaSpEDtEkSpzn-28" value="" style="endArrow=none;html=1;rounded=0;exitX=1;exitY=0.5;exitDx=0;exitDy=0;entryX=0;entryY=0.5;entryDx=0;entryDy=0;" parent="1" source="tAWQQP1TaSpEDtEkSpzn-1" target="tAWQQP1TaSpEDtEkSpzn-20" edge="1">
          <mxGeometry width="50" height="50" relative="1" as="geometry">
            <mxPoint x="170" y="190" as="sourcePoint" />
            <mxPoint x="250" y="315" as="targetPoint" />
          </mxGeometry>
        </mxCell>
        <mxCell id="tAWQQP1TaSpEDtEkSpzn-29" value="" style="endArrow=none;html=1;rounded=0;exitX=1;exitY=0.5;exitDx=0;exitDy=0;entryX=0;entryY=0.5;entryDx=0;entryDy=0;" parent="1" source="tAWQQP1TaSpEDtEkSpzn-2" target="tAWQQP1TaSpEDtEkSpzn-20" edge="1">
          <mxGeometry width="50" height="50" relative="1" as="geometry">
            <mxPoint x="150" y="300" as="sourcePoint" />
            <mxPoint x="230" y="325" as="targetPoint" />
          </mxGeometry>
        </mxCell>
        <mxCell id="tAWQQP1TaSpEDtEkSpzn-30" value="" style="endArrow=none;html=1;rounded=0;exitX=1;exitY=0.5;exitDx=0;exitDy=0;entryX=0;entryY=0.5;entryDx=0;entryDy=0;" parent="1" source="tAWQQP1TaSpEDtEkSpzn-2" target="tAWQQP1TaSpEDtEkSpzn-9" edge="1">
          <mxGeometry width="50" height="50" relative="1" as="geometry">
            <mxPoint x="150" y="300" as="sourcePoint" />
            <mxPoint x="230" y="375" as="targetPoint" />
          </mxGeometry>
        </mxCell>
        <mxCell id="tAWQQP1TaSpEDtEkSpzn-31" value="" style="endArrow=none;html=1;rounded=0;exitX=1;exitY=0.5;exitDx=0;exitDy=0;entryX=0;entryY=0.5;entryDx=0;entryDy=0;" parent="1" source="tAWQQP1TaSpEDtEkSpzn-2" target="tAWQQP1TaSpEDtEkSpzn-8" edge="1">
          <mxGeometry width="50" height="50" relative="1" as="geometry">
            <mxPoint x="150" y="300" as="sourcePoint" />
            <mxPoint x="230" y="425" as="targetPoint" />
          </mxGeometry>
        </mxCell>
        <mxCell id="tAWQQP1TaSpEDtEkSpzn-32" value="" style="endArrow=none;html=1;rounded=0;exitX=1;exitY=0.5;exitDx=0;exitDy=0;entryX=0;entryY=0.5;entryDx=0;entryDy=0;" parent="1" source="tAWQQP1TaSpEDtEkSpzn-2" target="tAWQQP1TaSpEDtEkSpzn-7" edge="1">
          <mxGeometry width="50" height="50" relative="1" as="geometry">
            <mxPoint x="150" y="300" as="sourcePoint" />
            <mxPoint x="230" y="475" as="targetPoint" />
          </mxGeometry>
        </mxCell>
        <mxCell id="tAWQQP1TaSpEDtEkSpzn-57" value="" style="endArrow=none;html=1;rounded=0;exitX=1;exitY=0.5;exitDx=0;exitDy=0;entryX=0;entryY=0.5;entryDx=0;entryDy=0;" parent="1" source="tAWQQP1TaSpEDtEkSpzn-3" target="tAWQQP1TaSpEDtEkSpzn-7" edge="1">
          <mxGeometry width="50" height="50" relative="1" as="geometry">
            <mxPoint x="310" y="350" as="sourcePoint" />
            <mxPoint x="360" y="300" as="targetPoint" />
          </mxGeometry>
        </mxCell>
        <mxCell id="tAWQQP1TaSpEDtEkSpzn-58" value="" style="endArrow=none;html=1;rounded=0;exitX=1;exitY=0.5;exitDx=0;exitDy=0;entryX=0;entryY=0.5;entryDx=0;entryDy=0;" parent="1" source="tAWQQP1TaSpEDtEkSpzn-3" target="tAWQQP1TaSpEDtEkSpzn-8" edge="1">
          <mxGeometry width="50" height="50" relative="1" as="geometry">
            <mxPoint x="170" y="290" as="sourcePoint" />
            <mxPoint x="250" y="215" as="targetPoint" />
          </mxGeometry>
        </mxCell>
        <mxCell id="tAWQQP1TaSpEDtEkSpzn-59" value="" style="endArrow=none;html=1;rounded=0;exitX=1;exitY=0.5;exitDx=0;exitDy=0;entryX=0;entryY=0.5;entryDx=0;entryDy=0;" parent="1" source="tAWQQP1TaSpEDtEkSpzn-3" target="tAWQQP1TaSpEDtEkSpzn-9" edge="1">
          <mxGeometry width="50" height="50" relative="1" as="geometry">
            <mxPoint x="170" y="290" as="sourcePoint" />
            <mxPoint x="250" y="265" as="targetPoint" />
          </mxGeometry>
        </mxCell>
        <mxCell id="tAWQQP1TaSpEDtEkSpzn-60" value="" style="endArrow=none;html=1;rounded=0;exitX=1;exitY=0.5;exitDx=0;exitDy=0;entryX=0;entryY=0.5;entryDx=0;entryDy=0;" parent="1" source="tAWQQP1TaSpEDtEkSpzn-3" target="tAWQQP1TaSpEDtEkSpzn-20" edge="1">
          <mxGeometry width="50" height="50" relative="1" as="geometry">
            <mxPoint x="170" y="290" as="sourcePoint" />
            <mxPoint x="250" y="315" as="targetPoint" />
          </mxGeometry>
        </mxCell>
        <mxCell id="tAWQQP1TaSpEDtEkSpzn-61" value="" style="endArrow=none;html=1;rounded=0;exitX=1;exitY=0.5;exitDx=0;exitDy=0;entryX=0;entryY=0.5;entryDx=0;entryDy=0;" parent="1" source="tAWQQP1TaSpEDtEkSpzn-4" target="tAWQQP1TaSpEDtEkSpzn-7" edge="1">
          <mxGeometry width="50" height="50" relative="1" as="geometry">
            <mxPoint x="170" y="290" as="sourcePoint" />
            <mxPoint x="250" y="365" as="targetPoint" />
          </mxGeometry>
        </mxCell>
        <mxCell id="tAWQQP1TaSpEDtEkSpzn-62" value="" style="endArrow=none;html=1;rounded=0;exitX=1;exitY=0.5;exitDx=0;exitDy=0;entryX=0;entryY=0.5;entryDx=0;entryDy=0;" parent="1" source="tAWQQP1TaSpEDtEkSpzn-4" target="tAWQQP1TaSpEDtEkSpzn-8" edge="1">
          <mxGeometry width="50" height="50" relative="1" as="geometry">
            <mxPoint x="170" y="390" as="sourcePoint" />
            <mxPoint x="250" y="215" as="targetPoint" />
          </mxGeometry>
        </mxCell>
        <mxCell id="tAWQQP1TaSpEDtEkSpzn-63" value="" style="endArrow=none;html=1;rounded=0;exitX=1;exitY=0.5;exitDx=0;exitDy=0;entryX=0;entryY=0.5;entryDx=0;entryDy=0;" parent="1" source="tAWQQP1TaSpEDtEkSpzn-4" target="tAWQQP1TaSpEDtEkSpzn-9" edge="1">
          <mxGeometry width="50" height="50" relative="1" as="geometry">
            <mxPoint x="170" y="390" as="sourcePoint" />
            <mxPoint x="250" y="265" as="targetPoint" />
          </mxGeometry>
        </mxCell>
        <mxCell id="tAWQQP1TaSpEDtEkSpzn-64" value="" style="endArrow=none;html=1;rounded=0;exitX=1;exitY=0.5;exitDx=0;exitDy=0;entryX=0;entryY=0.5;entryDx=0;entryDy=0;" parent="1" source="tAWQQP1TaSpEDtEkSpzn-4" target="tAWQQP1TaSpEDtEkSpzn-20" edge="1">
          <mxGeometry width="50" height="50" relative="1" as="geometry">
            <mxPoint x="170" y="390" as="sourcePoint" />
            <mxPoint x="250" y="315" as="targetPoint" />
          </mxGeometry>
        </mxCell>
        <mxCell id="tAWQQP1TaSpEDtEkSpzn-66" value="" style="endArrow=none;html=1;rounded=0;exitX=1;exitY=0.5;exitDx=0;exitDy=0;entryX=0;entryY=0.5;entryDx=0;entryDy=0;" parent="1" source="tAWQQP1TaSpEDtEkSpzn-7" target="tAWQQP1TaSpEDtEkSpzn-22" edge="1">
          <mxGeometry width="50" height="50" relative="1" as="geometry">
            <mxPoint x="290" y="215" as="sourcePoint" />
            <mxPoint x="370" y="215" as="targetPoint" />
          </mxGeometry>
        </mxCell>
        <mxCell id="tAWQQP1TaSpEDtEkSpzn-67" value="" style="endArrow=none;html=1;rounded=0;exitX=1;exitY=0.5;exitDx=0;exitDy=0;entryX=0;entryY=0.5;entryDx=0;entryDy=0;" parent="1" source="tAWQQP1TaSpEDtEkSpzn-7" target="tAWQQP1TaSpEDtEkSpzn-23" edge="1">
          <mxGeometry width="50" height="50" relative="1" as="geometry">
            <mxPoint x="290" y="215" as="sourcePoint" />
            <mxPoint x="370" y="265" as="targetPoint" />
          </mxGeometry>
        </mxCell>
        <mxCell id="tAWQQP1TaSpEDtEkSpzn-68" value="" style="endArrow=none;html=1;rounded=0;exitX=1;exitY=0.5;exitDx=0;exitDy=0;entryX=0;entryY=0.5;entryDx=0;entryDy=0;" parent="1" source="tAWQQP1TaSpEDtEkSpzn-7" target="tAWQQP1TaSpEDtEkSpzn-24" edge="1">
          <mxGeometry width="50" height="50" relative="1" as="geometry">
            <mxPoint x="290" y="215" as="sourcePoint" />
            <mxPoint x="370" y="315" as="targetPoint" />
          </mxGeometry>
        </mxCell>
        <mxCell id="tAWQQP1TaSpEDtEkSpzn-69" value="" style="endArrow=none;html=1;rounded=0;exitX=1;exitY=0.5;exitDx=0;exitDy=0;entryX=0;entryY=0.5;entryDx=0;entryDy=0;" parent="1" source="tAWQQP1TaSpEDtEkSpzn-8" target="tAWQQP1TaSpEDtEkSpzn-21" edge="1">
          <mxGeometry width="50" height="50" relative="1" as="geometry">
            <mxPoint x="290" y="215" as="sourcePoint" />
            <mxPoint x="370" y="365" as="targetPoint" />
          </mxGeometry>
        </mxCell>
        <mxCell id="tAWQQP1TaSpEDtEkSpzn-70" value="" style="endArrow=none;html=1;rounded=0;exitX=1;exitY=0.5;exitDx=0;exitDy=0;entryX=0;entryY=0.5;entryDx=0;entryDy=0;" parent="1" source="tAWQQP1TaSpEDtEkSpzn-8" target="tAWQQP1TaSpEDtEkSpzn-22" edge="1">
          <mxGeometry width="50" height="50" relative="1" as="geometry">
            <mxPoint x="290" y="265" as="sourcePoint" />
            <mxPoint x="370" y="215" as="targetPoint" />
          </mxGeometry>
        </mxCell>
        <mxCell id="tAWQQP1TaSpEDtEkSpzn-71" value="" style="endArrow=none;html=1;rounded=0;exitX=1;exitY=0.5;exitDx=0;exitDy=0;entryX=0;entryY=0.5;entryDx=0;entryDy=0;" parent="1" source="tAWQQP1TaSpEDtEkSpzn-8" target="tAWQQP1TaSpEDtEkSpzn-23" edge="1">
          <mxGeometry width="50" height="50" relative="1" as="geometry">
            <mxPoint x="290" y="265" as="sourcePoint" />
            <mxPoint x="370" y="265" as="targetPoint" />
          </mxGeometry>
        </mxCell>
        <mxCell id="tAWQQP1TaSpEDtEkSpzn-72" value="" style="endArrow=none;html=1;rounded=0;exitX=1;exitY=0.5;exitDx=0;exitDy=0;entryX=0;entryY=0.5;entryDx=0;entryDy=0;" parent="1" source="tAWQQP1TaSpEDtEkSpzn-8" target="tAWQQP1TaSpEDtEkSpzn-24" edge="1">
          <mxGeometry width="50" height="50" relative="1" as="geometry">
            <mxPoint x="290" y="265" as="sourcePoint" />
            <mxPoint x="370" y="315" as="targetPoint" />
          </mxGeometry>
        </mxCell>
        <mxCell id="tAWQQP1TaSpEDtEkSpzn-73" value="" style="endArrow=none;html=1;rounded=0;exitX=1;exitY=0.5;exitDx=0;exitDy=0;entryX=0;entryY=0.5;entryDx=0;entryDy=0;" parent="1" source="tAWQQP1TaSpEDtEkSpzn-9" target="tAWQQP1TaSpEDtEkSpzn-21" edge="1">
          <mxGeometry width="50" height="50" relative="1" as="geometry">
            <mxPoint x="290" y="265" as="sourcePoint" />
            <mxPoint x="370" y="365" as="targetPoint" />
          </mxGeometry>
        </mxCell>
        <mxCell id="tAWQQP1TaSpEDtEkSpzn-74" value="" style="endArrow=none;html=1;rounded=0;exitX=1;exitY=0.5;exitDx=0;exitDy=0;entryX=0;entryY=0.5;entryDx=0;entryDy=0;" parent="1" source="tAWQQP1TaSpEDtEkSpzn-9" target="tAWQQP1TaSpEDtEkSpzn-22" edge="1">
          <mxGeometry width="50" height="50" relative="1" as="geometry">
            <mxPoint x="290" y="315" as="sourcePoint" />
            <mxPoint x="370" y="215" as="targetPoint" />
          </mxGeometry>
        </mxCell>
        <mxCell id="tAWQQP1TaSpEDtEkSpzn-75" value="" style="endArrow=none;html=1;rounded=0;exitX=1;exitY=0.5;exitDx=0;exitDy=0;entryX=0;entryY=0.5;entryDx=0;entryDy=0;" parent="1" source="tAWQQP1TaSpEDtEkSpzn-9" target="tAWQQP1TaSpEDtEkSpzn-23" edge="1">
          <mxGeometry width="50" height="50" relative="1" as="geometry">
            <mxPoint x="290" y="315" as="sourcePoint" />
            <mxPoint x="370" y="265" as="targetPoint" />
          </mxGeometry>
        </mxCell>
        <mxCell id="tAWQQP1TaSpEDtEkSpzn-76" value="" style="endArrow=none;html=1;rounded=0;exitX=1;exitY=0.5;exitDx=0;exitDy=0;entryX=0;entryY=0.5;entryDx=0;entryDy=0;" parent="1" source="tAWQQP1TaSpEDtEkSpzn-9" target="tAWQQP1TaSpEDtEkSpzn-24" edge="1">
          <mxGeometry width="50" height="50" relative="1" as="geometry">
            <mxPoint x="290" y="315" as="sourcePoint" />
            <mxPoint x="370" y="315" as="targetPoint" />
          </mxGeometry>
        </mxCell>
        <mxCell id="tAWQQP1TaSpEDtEkSpzn-77" value="" style="endArrow=none;html=1;rounded=0;exitX=1;exitY=0.5;exitDx=0;exitDy=0;entryX=0;entryY=0.5;entryDx=0;entryDy=0;" parent="1" source="tAWQQP1TaSpEDtEkSpzn-20" target="tAWQQP1TaSpEDtEkSpzn-21" edge="1">
          <mxGeometry width="50" height="50" relative="1" as="geometry">
            <mxPoint x="290" y="315" as="sourcePoint" />
            <mxPoint x="370" y="365" as="targetPoint" />
          </mxGeometry>
        </mxCell>
        <mxCell id="tAWQQP1TaSpEDtEkSpzn-79" value="" style="endArrow=none;html=1;rounded=0;exitX=1;exitY=0.5;exitDx=0;exitDy=0;entryX=0;entryY=0.5;entryDx=0;entryDy=0;" parent="1" source="tAWQQP1TaSpEDtEkSpzn-20" target="tAWQQP1TaSpEDtEkSpzn-22" edge="1">
          <mxGeometry width="50" height="50" relative="1" as="geometry">
            <mxPoint x="290" y="365" as="sourcePoint" />
            <mxPoint x="370" y="215" as="targetPoint" />
          </mxGeometry>
        </mxCell>
        <mxCell id="tAWQQP1TaSpEDtEkSpzn-80" value="" style="endArrow=none;html=1;rounded=0;exitX=1;exitY=0.5;exitDx=0;exitDy=0;entryX=0;entryY=0.5;entryDx=0;entryDy=0;" parent="1" source="tAWQQP1TaSpEDtEkSpzn-20" target="tAWQQP1TaSpEDtEkSpzn-23" edge="1">
          <mxGeometry width="50" height="50" relative="1" as="geometry">
            <mxPoint x="290" y="365" as="sourcePoint" />
            <mxPoint x="370" y="265" as="targetPoint" />
          </mxGeometry>
        </mxCell>
        <mxCell id="tAWQQP1TaSpEDtEkSpzn-81" value="" style="endArrow=none;html=1;rounded=0;exitX=1;exitY=0.5;exitDx=0;exitDy=0;entryX=0;entryY=0.5;entryDx=0;entryDy=0;" parent="1" source="tAWQQP1TaSpEDtEkSpzn-20" target="tAWQQP1TaSpEDtEkSpzn-24" edge="1">
          <mxGeometry width="50" height="50" relative="1" as="geometry">
            <mxPoint x="290" y="365" as="sourcePoint" />
            <mxPoint x="370" y="315" as="targetPoint" />
          </mxGeometry>
        </mxCell>
        <mxCell id="tAWQQP1TaSpEDtEkSpzn-82" value="" style="endArrow=none;html=1;rounded=0;exitX=1;exitY=0.5;exitDx=0;exitDy=0;entryX=0;entryY=0.5;entryDx=0;entryDy=0;" parent="1" source="tAWQQP1TaSpEDtEkSpzn-21" target="tAWQQP1TaSpEDtEkSpzn-13" edge="1">
          <mxGeometry width="50" height="50" relative="1" as="geometry">
            <mxPoint x="290" y="365" as="sourcePoint" />
            <mxPoint x="370" y="365" as="targetPoint" />
          </mxGeometry>
        </mxCell>
        <mxCell id="tAWQQP1TaSpEDtEkSpzn-83" value="" style="endArrow=none;html=1;rounded=0;exitX=1;exitY=0.5;exitDx=0;exitDy=0;entryX=0;entryY=0.5;entryDx=0;entryDy=0;" parent="1" source="tAWQQP1TaSpEDtEkSpzn-21" target="tAWQQP1TaSpEDtEkSpzn-14" edge="1">
          <mxGeometry width="50" height="50" relative="1" as="geometry">
            <mxPoint x="410" y="215" as="sourcePoint" />
            <mxPoint x="490" y="265" as="targetPoint" />
          </mxGeometry>
        </mxCell>
        <mxCell id="tAWQQP1TaSpEDtEkSpzn-84" value="" style="endArrow=none;html=1;rounded=0;exitX=1;exitY=0.5;exitDx=0;exitDy=0;entryX=0;entryY=0.5;entryDx=0;entryDy=0;" parent="1" source="tAWQQP1TaSpEDtEkSpzn-22" target="tAWQQP1TaSpEDtEkSpzn-13" edge="1">
          <mxGeometry width="50" height="50" relative="1" as="geometry">
            <mxPoint x="410" y="215" as="sourcePoint" />
            <mxPoint x="490" y="315" as="targetPoint" />
          </mxGeometry>
        </mxCell>
        <mxCell id="tAWQQP1TaSpEDtEkSpzn-85" value="" style="endArrow=none;html=1;rounded=0;exitX=1;exitY=0.5;exitDx=0;exitDy=0;entryX=0;entryY=0.5;entryDx=0;entryDy=0;" parent="1" source="tAWQQP1TaSpEDtEkSpzn-22" target="tAWQQP1TaSpEDtEkSpzn-14" edge="1">
          <mxGeometry width="50" height="50" relative="1" as="geometry">
            <mxPoint x="410" y="265" as="sourcePoint" />
            <mxPoint x="490" y="265" as="targetPoint" />
          </mxGeometry>
        </mxCell>
        <mxCell id="tAWQQP1TaSpEDtEkSpzn-86" value="" style="endArrow=none;html=1;rounded=0;exitX=1;exitY=0.5;exitDx=0;exitDy=0;entryX=0;entryY=0.5;entryDx=0;entryDy=0;" parent="1" source="tAWQQP1TaSpEDtEkSpzn-23" target="tAWQQP1TaSpEDtEkSpzn-13" edge="1">
          <mxGeometry width="50" height="50" relative="1" as="geometry">
            <mxPoint x="410" y="265" as="sourcePoint" />
            <mxPoint x="490" y="315" as="targetPoint" />
          </mxGeometry>
        </mxCell>
        <mxCell id="tAWQQP1TaSpEDtEkSpzn-88" value="" style="endArrow=none;html=1;rounded=0;exitX=1;exitY=0.5;exitDx=0;exitDy=0;entryX=0;entryY=0.5;entryDx=0;entryDy=0;" parent="1" source="tAWQQP1TaSpEDtEkSpzn-23" target="tAWQQP1TaSpEDtEkSpzn-14" edge="1">
          <mxGeometry width="50" height="50" relative="1" as="geometry">
            <mxPoint x="410" y="265" as="sourcePoint" />
            <mxPoint x="490" y="315" as="targetPoint" />
          </mxGeometry>
        </mxCell>
        <mxCell id="tAWQQP1TaSpEDtEkSpzn-89" value="" style="endArrow=none;html=1;rounded=0;exitX=1;exitY=0.5;exitDx=0;exitDy=0;entryX=0;entryY=0.5;entryDx=0;entryDy=0;" parent="1" source="tAWQQP1TaSpEDtEkSpzn-24" target="tAWQQP1TaSpEDtEkSpzn-14" edge="1">
          <mxGeometry width="50" height="50" relative="1" as="geometry">
            <mxPoint x="410" y="265" as="sourcePoint" />
            <mxPoint x="490" y="315" as="targetPoint" />
          </mxGeometry>
        </mxCell>
        <mxCell id="tAWQQP1TaSpEDtEkSpzn-90" value="" style="endArrow=none;html=1;rounded=0;exitX=1;exitY=0.5;exitDx=0;exitDy=0;entryX=0;entryY=0.5;entryDx=0;entryDy=0;" parent="1" source="tAWQQP1TaSpEDtEkSpzn-24" target="tAWQQP1TaSpEDtEkSpzn-13" edge="1">
          <mxGeometry width="50" height="50" relative="1" as="geometry">
            <mxPoint x="410" y="265" as="sourcePoint" />
            <mxPoint x="490" y="315" as="targetPoint" />
          </mxGeometry>
        </mxCell>
        <mxCell id="tAWQQP1TaSpEDtEkSpzn-92" value="&lt;font style=&quot;font-size: 16px;&quot;&gt;Input&lt;/font&gt;" style="text;html=1;align=center;verticalAlign=middle;whiteSpace=wrap;rounded=0;" parent="1" vertex="1">
          <mxGeometry x="110" y="410" width="60" height="30" as="geometry" />
        </mxCell>
        <mxCell id="tAWQQP1TaSpEDtEkSpzn-94" value="&lt;font style=&quot;font-size: 16px;&quot;&gt;Output&lt;/font&gt;" style="text;html=1;align=center;verticalAlign=middle;whiteSpace=wrap;rounded=0;" parent="1" vertex="1">
          <mxGeometry x="470" y="330" width="60" height="30" as="geometry" />
        </mxCell>
        <mxCell id="tAWQQP1TaSpEDtEkSpzn-96" value="" style="endArrow=none;html=1;rounded=0;exitX=1;exitY=0.5;exitDx=0;exitDy=0;entryX=0;entryY=0.5;entryDx=0;entryDy=0;" parent="1" source="tAWQQP1TaSpEDtEkSpzn-7" target="tAWQQP1TaSpEDtEkSpzn-21" edge="1">
          <mxGeometry width="50" height="50" relative="1" as="geometry">
            <mxPoint x="280" y="205" as="sourcePoint" />
            <mxPoint x="360" y="205" as="targetPoint" />
          </mxGeometry>
        </mxCell>
        <mxCell id="tAWQQP1TaSpEDtEkSpzn-97" value="&lt;font style=&quot;font-size: 16px;&quot;&gt;Hidden layers&lt;/font&gt;" style="text;html=1;align=center;verticalAlign=middle;whiteSpace=wrap;rounded=0;" parent="1" vertex="1">
          <mxGeometry x="234" y="380" width="180" height="30" as="geometry" />
        </mxCell>
        <mxCell id="tAWQQP1TaSpEDtEkSpzn-98" value="&lt;font style=&quot;font-size: 25px;&quot;&gt;Fully connected neural network&lt;/font&gt;" style="text;html=1;align=center;verticalAlign=middle;whiteSpace=wrap;rounded=0;" parent="1" vertex="1">
          <mxGeometry x="110" y="110" width="420" height="30" as="geometry" />
        </mxCell>
      </root>
    </mxGraphModel>
  </diagram>
  <diagram id="_5BZosQ28Er-B8HyaeE3" name="rnn">
    <mxGraphModel dx="895" dy="599" grid="1" gridSize="10" guides="1" tooltips="1" connect="1" arrows="1" fold="1" page="1" pageScale="1" pageWidth="827" pageHeight="1169" math="1" shadow="0">
      <root>
        <mxCell id="0" />
        <mxCell id="1" parent="0" />
        <mxCell id="ySrRupbL0Yq4VU_R2tU6-1" value="" style="rounded=1;whiteSpace=wrap;html=1;fillColor=#ffe6cc;strokeColor=#d79b00;dashed=1;dashPattern=12 12;" vertex="1" parent="1">
          <mxGeometry x="430" y="150" width="60" height="220" as="geometry" />
        </mxCell>
        <mxCell id="LSHb8Uy8QAOb47vb6Jpt-2" value="" style="rounded=1;whiteSpace=wrap;html=1;fillColor=#ffe6cc;strokeColor=#d79b00;dashed=1;dashPattern=12 12;" vertex="1" parent="1">
          <mxGeometry x="230" y="310" width="60" height="60" as="geometry" />
        </mxCell>
        <mxCell id="LSHb8Uy8QAOb47vb6Jpt-3" value="" style="rounded=1;whiteSpace=wrap;html=1;fillColor=#d5e8d4;strokeColor=#82b366;" vertex="1" parent="1">
          <mxGeometry x="230" y="230" width="60" height="60" as="geometry" />
        </mxCell>
        <mxCell id="LSHb8Uy8QAOb47vb6Jpt-1" value="" style="rounded=1;whiteSpace=wrap;html=1;fillColor=#dae8fc;strokeColor=#6c8ebf;" vertex="1" parent="1">
          <mxGeometry x="230" y="390" width="60" height="60" as="geometry" />
        </mxCell>
        <mxCell id="AwfwwttcpFcZzyvp_z-5-4" value="$$\hat{\vec{y}}$$" style="ellipse;whiteSpace=wrap;html=1;aspect=fixed;" vertex="1" parent="1">
          <mxGeometry x="240" y="240" width="40" height="40" as="geometry" />
        </mxCell>
        <mxCell id="AwfwwttcpFcZzyvp_z-5-63" value="&lt;font style=&quot;font-size: 25px;&quot;&gt;Recurrent neural network&lt;/font&gt;" style="text;html=1;align=left;verticalAlign=middle;whiteSpace=wrap;rounded=0;fontStyle=0" vertex="1" parent="1">
          <mxGeometry x="220" y="70" width="160" height="120" as="geometry" />
        </mxCell>
        <mxCell id="AwfwwttcpFcZzyvp_z-5-64" value="$$\vec{h}$$" style="ellipse;whiteSpace=wrap;html=1;aspect=fixed;" vertex="1" parent="1">
          <mxGeometry x="240" y="320" width="40" height="40" as="geometry" />
        </mxCell>
        <mxCell id="AwfwwttcpFcZzyvp_z-5-65" value="$$\vec{X}$$" style="ellipse;whiteSpace=wrap;html=1;aspect=fixed;" vertex="1" parent="1">
          <mxGeometry x="240" y="400" width="40" height="40" as="geometry" />
        </mxCell>
        <mxCell id="AwfwwttcpFcZzyvp_z-5-66" value="" style="endArrow=none;html=1;rounded=0;exitX=0.5;exitY=0;exitDx=0;exitDy=0;entryX=0.5;entryY=1;entryDx=0;entryDy=0;endFill=0;" edge="1" parent="1" source="AwfwwttcpFcZzyvp_z-5-65" target="AwfwwttcpFcZzyvp_z-5-64">
          <mxGeometry width="50" height="50" relative="1" as="geometry">
            <mxPoint x="280" y="380" as="sourcePoint" />
            <mxPoint x="330" y="330" as="targetPoint" />
          </mxGeometry>
        </mxCell>
        <mxCell id="AwfwwttcpFcZzyvp_z-5-67" value="" style="endArrow=none;html=1;rounded=0;exitX=0.5;exitY=0;exitDx=0;exitDy=0;entryX=0.5;entryY=1;entryDx=0;entryDy=0;endFill=0;" edge="1" parent="1" source="AwfwwttcpFcZzyvp_z-5-64" target="AwfwwttcpFcZzyvp_z-5-4">
          <mxGeometry width="50" height="50" relative="1" as="geometry">
            <mxPoint x="280" y="380" as="sourcePoint" />
            <mxPoint x="280" y="290" as="targetPoint" />
          </mxGeometry>
        </mxCell>
        <mxCell id="AwfwwttcpFcZzyvp_z-5-76" value="" style="verticalLabelPosition=bottom;verticalAlign=top;html=1;shape=mxgraph.basic.arc;startAngle=0.3808059976491963;endAngle=0.11827914106484352;" vertex="1" parent="1">
          <mxGeometry x="210" y="315" width="50" height="50" as="geometry" />
        </mxCell>
        <mxCell id="ySrRupbL0Yq4VU_R2tU6-2" value="" style="rounded=1;whiteSpace=wrap;html=1;fillColor=#d5e8d4;strokeColor=#82b366;" vertex="1" parent="1">
          <mxGeometry x="430" y="70" width="60" height="60" as="geometry" />
        </mxCell>
        <mxCell id="ySrRupbL0Yq4VU_R2tU6-3" value="" style="rounded=1;whiteSpace=wrap;html=1;fillColor=#dae8fc;strokeColor=#6c8ebf;" vertex="1" parent="1">
          <mxGeometry x="430" y="390" width="60" height="60" as="geometry" />
        </mxCell>
        <mxCell id="ySrRupbL0Yq4VU_R2tU6-4" value="$$\hat{\vec{y}}$$" style="ellipse;whiteSpace=wrap;html=1;aspect=fixed;" vertex="1" parent="1">
          <mxGeometry x="440" y="80" width="40" height="40" as="geometry" />
        </mxCell>
        <mxCell id="ySrRupbL0Yq4VU_R2tU6-5" value="$$\vec{h}_2$$" style="ellipse;whiteSpace=wrap;html=1;aspect=fixed;" vertex="1" parent="1">
          <mxGeometry x="440" y="240" width="40" height="40" as="geometry" />
        </mxCell>
        <mxCell id="ySrRupbL0Yq4VU_R2tU6-6" value="$$\vec{X}$$" style="ellipse;whiteSpace=wrap;html=1;aspect=fixed;" vertex="1" parent="1">
          <mxGeometry x="440" y="400" width="40" height="40" as="geometry" />
        </mxCell>
        <mxCell id="ySrRupbL0Yq4VU_R2tU6-9" value="" style="verticalLabelPosition=bottom;verticalAlign=top;html=1;shape=mxgraph.basic.arc;startAngle=0.3808059976491963;endAngle=0.11827914106484352;" vertex="1" parent="1">
          <mxGeometry x="410" y="235" width="50" height="50" as="geometry" />
        </mxCell>
        <mxCell id="ySrRupbL0Yq4VU_R2tU6-11" value="$$\vec{h}_1$$" style="ellipse;whiteSpace=wrap;html=1;aspect=fixed;" vertex="1" parent="1">
          <mxGeometry x="440" y="320" width="40" height="40" as="geometry" />
        </mxCell>
        <mxCell id="ySrRupbL0Yq4VU_R2tU6-12" value="" style="verticalLabelPosition=bottom;verticalAlign=top;html=1;shape=mxgraph.basic.arc;startAngle=0.3808059976491963;endAngle=0.11827914106484352;" vertex="1" parent="1">
          <mxGeometry x="410" y="315" width="50" height="50" as="geometry" />
        </mxCell>
        <mxCell id="ySrRupbL0Yq4VU_R2tU6-14" value="" style="endArrow=none;html=1;rounded=0;exitX=0.5;exitY=0;exitDx=0;exitDy=0;entryX=0.5;entryY=1;entryDx=0;entryDy=0;endFill=0;" edge="1" parent="1" source="ySrRupbL0Yq4VU_R2tU6-11" target="ySrRupbL0Yq4VU_R2tU6-5">
          <mxGeometry width="50" height="50" relative="1" as="geometry">
            <mxPoint x="470" y="250" as="sourcePoint" />
            <mxPoint x="470" y="210" as="targetPoint" />
          </mxGeometry>
        </mxCell>
        <mxCell id="ySrRupbL0Yq4VU_R2tU6-15" value="" style="endArrow=none;html=1;rounded=0;exitX=0.5;exitY=0;exitDx=0;exitDy=0;entryX=0.5;entryY=1;entryDx=0;entryDy=0;endFill=0;" edge="1" parent="1" source="ySrRupbL0Yq4VU_R2tU6-6" target="ySrRupbL0Yq4VU_R2tU6-11">
          <mxGeometry width="50" height="50" relative="1" as="geometry">
            <mxPoint x="470" y="330" as="sourcePoint" />
            <mxPoint x="470" y="290" as="targetPoint" />
          </mxGeometry>
        </mxCell>
        <mxCell id="jMo1uigGe3SfyXkGrFuN-1" value="Single recurrent layer" style="text;html=1;align=center;verticalAlign=middle;whiteSpace=wrap;rounded=0;fontSize=16;" vertex="1" parent="1">
          <mxGeometry x="200" y="460" width="120" height="30" as="geometry" />
        </mxCell>
        <mxCell id="Asmw9hz8Uu6VEIkysxmJ-1" value="Multiple recurrent layers" style="text;html=1;align=center;verticalAlign=middle;whiteSpace=wrap;rounded=0;fontSize=16;" vertex="1" parent="1">
          <mxGeometry x="400" y="460" width="120" height="30" as="geometry" />
        </mxCell>
        <mxCell id="Asmw9hz8Uu6VEIkysxmJ-2" value="$$\vec{h}_3$$" style="ellipse;whiteSpace=wrap;html=1;aspect=fixed;" vertex="1" parent="1">
          <mxGeometry x="440" y="160" width="40" height="40" as="geometry" />
        </mxCell>
        <mxCell id="Asmw9hz8Uu6VEIkysxmJ-3" value="" style="verticalLabelPosition=bottom;verticalAlign=top;html=1;shape=mxgraph.basic.arc;startAngle=0.3808059976491963;endAngle=0.11827914106484352;" vertex="1" parent="1">
          <mxGeometry x="410" y="155" width="50" height="50" as="geometry" />
        </mxCell>
        <mxCell id="Asmw9hz8Uu6VEIkysxmJ-4" value="" style="endArrow=none;html=1;rounded=0;exitX=0.5;exitY=0;exitDx=0;exitDy=0;entryX=0.5;entryY=1;entryDx=0;entryDy=0;endFill=0;" edge="1" parent="1">
          <mxGeometry width="50" height="50" relative="1" as="geometry">
            <mxPoint x="460" y="240" as="sourcePoint" />
            <mxPoint x="460" y="200" as="targetPoint" />
          </mxGeometry>
        </mxCell>
        <mxCell id="Asmw9hz8Uu6VEIkysxmJ-5" value="" style="endArrow=none;html=1;rounded=0;exitX=0.5;exitY=0;exitDx=0;exitDy=0;entryX=0.5;entryY=1;entryDx=0;entryDy=0;endFill=0;" edge="1" parent="1">
          <mxGeometry width="50" height="50" relative="1" as="geometry">
            <mxPoint x="459.62" y="160" as="sourcePoint" />
            <mxPoint x="459.62" y="120" as="targetPoint" />
          </mxGeometry>
        </mxCell>
      </root>
    </mxGraphModel>
  </diagram>
  <diagram id="o40lo3ScRDZSQq6Y-v9m" name="rnn_unfold">
    <mxGraphModel dx="1036" dy="694" grid="1" gridSize="10" guides="1" tooltips="1" connect="1" arrows="1" fold="1" page="1" pageScale="1" pageWidth="827" pageHeight="1169" math="1" shadow="0">
      <root>
        <mxCell id="0" />
        <mxCell id="1" parent="0" />
        <mxCell id="TWPNNen9g4Ln_031MSQN-22" value="" style="rounded=1;whiteSpace=wrap;html=1;fillColor=#ffe6cc;strokeColor=#d79b00;dashed=1;dashPattern=12 12;" vertex="1" parent="1">
          <mxGeometry x="270" y="270" width="460" height="140" as="geometry" />
        </mxCell>
        <mxCell id="TWPNNen9g4Ln_031MSQN-21" value="" style="rounded=1;whiteSpace=wrap;html=1;fillColor=#dae8fc;strokeColor=#6c8ebf;" vertex="1" parent="1">
          <mxGeometry x="270" y="430" width="460" height="60" as="geometry" />
        </mxCell>
        <mxCell id="TWPNNen9g4Ln_031MSQN-20" value="" style="rounded=1;whiteSpace=wrap;html=1;fillColor=#d5e8d4;strokeColor=default;fillStyle=solid;fixDash=0;" vertex="1" parent="1">
          <mxGeometry x="270" y="190" width="460" height="60" as="geometry" />
        </mxCell>
        <mxCell id="NqEcpBmAmqCIaiwnTPUT-20" value="" style="rounded=1;whiteSpace=wrap;html=1;fillColor=#ffe6cc;strokeColor=#d79b00;dashed=1;dashPattern=12 12;" vertex="1" parent="1">
          <mxGeometry x="70" y="270" width="60" height="140" as="geometry" />
        </mxCell>
        <mxCell id="NqEcpBmAmqCIaiwnTPUT-5" value="&lt;font style=&quot;font-size: 25px;&quot;&gt;Recurrent neural network&lt;/font&gt;" style="text;html=1;align=center;verticalAlign=middle;whiteSpace=wrap;rounded=0;" vertex="1" parent="1">
          <mxGeometry x="70" y="130" width="660" height="30" as="geometry" />
        </mxCell>
        <mxCell id="NqEcpBmAmqCIaiwnTPUT-11" value="" style="edgeStyle=orthogonalEdgeStyle;rounded=0;orthogonalLoop=1;jettySize=auto;html=1;" edge="1" parent="1" target="NqEcpBmAmqCIaiwnTPUT-15">
          <mxGeometry relative="1" as="geometry">
            <mxPoint x="100" y="270" as="sourcePoint" />
          </mxGeometry>
        </mxCell>
        <mxCell id="NqEcpBmAmqCIaiwnTPUT-13" value="" style="rounded=1;whiteSpace=wrap;html=1;fillColor=#d5e8d4;strokeColor=#82b366;" vertex="1" parent="1">
          <mxGeometry x="70" y="190" width="60" height="60" as="geometry" />
        </mxCell>
        <mxCell id="NqEcpBmAmqCIaiwnTPUT-14" value="" style="rounded=1;whiteSpace=wrap;html=1;fillColor=#dae8fc;strokeColor=#6c8ebf;" vertex="1" parent="1">
          <mxGeometry x="70" y="430" width="60" height="60" as="geometry" />
        </mxCell>
        <mxCell id="NqEcpBmAmqCIaiwnTPUT-15" value="$$\hat{\vec{y}}$$" style="ellipse;whiteSpace=wrap;html=1;aspect=fixed;" vertex="1" parent="1">
          <mxGeometry x="80" y="200" width="40" height="40" as="geometry" />
        </mxCell>
        <mxCell id="NqEcpBmAmqCIaiwnTPUT-16" value="$$\vec{h}^2$$" style="ellipse;whiteSpace=wrap;html=1;aspect=fixed;" vertex="1" parent="1">
          <mxGeometry x="80" y="280" width="40" height="40" as="geometry" />
        </mxCell>
        <mxCell id="NqEcpBmAmqCIaiwnTPUT-17" value="$$\vec{X}$$" style="ellipse;whiteSpace=wrap;html=1;aspect=fixed;" vertex="1" parent="1">
          <mxGeometry x="80" y="440" width="40" height="40" as="geometry" />
        </mxCell>
        <mxCell id="NqEcpBmAmqCIaiwnTPUT-18" value="" style="endArrow=none;html=1;rounded=0;exitX=0.5;exitY=0;exitDx=0;exitDy=0;entryX=0.5;entryY=1;entryDx=0;entryDy=0;endFill=0;" edge="1" parent="1" source="NqEcpBmAmqCIaiwnTPUT-16" target="NqEcpBmAmqCIaiwnTPUT-15">
          <mxGeometry width="50" height="50" relative="1" as="geometry">
            <mxPoint x="120" y="340" as="sourcePoint" />
            <mxPoint x="120" y="250" as="targetPoint" />
          </mxGeometry>
        </mxCell>
        <mxCell id="NqEcpBmAmqCIaiwnTPUT-19" value="" style="verticalLabelPosition=bottom;verticalAlign=top;html=1;shape=mxgraph.basic.arc;startAngle=0.3808059976491963;endAngle=0.11827914106484352;" vertex="1" parent="1">
          <mxGeometry x="50" y="275" width="50" height="50" as="geometry" />
        </mxCell>
        <mxCell id="NqEcpBmAmqCIaiwnTPUT-21" value="$$\vec{h}^1$$" style="ellipse;whiteSpace=wrap;html=1;aspect=fixed;" vertex="1" parent="1">
          <mxGeometry x="80" y="360" width="40" height="40" as="geometry" />
        </mxCell>
        <mxCell id="NqEcpBmAmqCIaiwnTPUT-22" value="" style="verticalLabelPosition=bottom;verticalAlign=top;html=1;shape=mxgraph.basic.arc;startAngle=0.3808059976491963;endAngle=0.11827914106484352;" vertex="1" parent="1">
          <mxGeometry x="50" y="355" width="50" height="50" as="geometry" />
        </mxCell>
        <mxCell id="NqEcpBmAmqCIaiwnTPUT-23" value="" style="endArrow=none;html=1;rounded=0;exitX=0.5;exitY=0;exitDx=0;exitDy=0;entryX=0.5;entryY=1;entryDx=0;entryDy=0;endFill=0;" edge="1" parent="1" source="NqEcpBmAmqCIaiwnTPUT-21" target="NqEcpBmAmqCIaiwnTPUT-16">
          <mxGeometry width="50" height="50" relative="1" as="geometry">
            <mxPoint x="110" y="290" as="sourcePoint" />
            <mxPoint x="110" y="250" as="targetPoint" />
          </mxGeometry>
        </mxCell>
        <mxCell id="NqEcpBmAmqCIaiwnTPUT-24" value="" style="endArrow=none;html=1;rounded=0;exitX=0.5;exitY=0;exitDx=0;exitDy=0;entryX=0.5;entryY=1;entryDx=0;entryDy=0;endFill=0;" edge="1" parent="1" source="NqEcpBmAmqCIaiwnTPUT-17" target="NqEcpBmAmqCIaiwnTPUT-21">
          <mxGeometry width="50" height="50" relative="1" as="geometry">
            <mxPoint x="110" y="370" as="sourcePoint" />
            <mxPoint x="110" y="330" as="targetPoint" />
          </mxGeometry>
        </mxCell>
        <mxCell id="NqEcpBmAmqCIaiwnTPUT-43" value="$$\hat{\vec{y}}^{(1)}$$" style="ellipse;whiteSpace=wrap;html=1;aspect=fixed;" vertex="1" parent="1">
          <mxGeometry x="280" y="200" width="40" height="40" as="geometry" />
        </mxCell>
        <mxCell id="NqEcpBmAmqCIaiwnTPUT-44" value="$$\vec{h}_2^{(1)}$$" style="ellipse;whiteSpace=wrap;html=1;aspect=fixed;" vertex="1" parent="1">
          <mxGeometry x="280" y="280" width="40" height="40" as="geometry" />
        </mxCell>
        <mxCell id="NqEcpBmAmqCIaiwnTPUT-45" value="$$\vec{X}^{(1)}$$" style="ellipse;whiteSpace=wrap;html=1;aspect=fixed;" vertex="1" parent="1">
          <mxGeometry x="280" y="440" width="40" height="40" as="geometry" />
        </mxCell>
        <mxCell id="NqEcpBmAmqCIaiwnTPUT-46" value="" style="endArrow=blockThin;html=1;rounded=0;exitX=0.5;exitY=0;exitDx=0;exitDy=0;entryX=0.5;entryY=1;entryDx=0;entryDy=0;endFill=1;" edge="1" source="NqEcpBmAmqCIaiwnTPUT-44" target="NqEcpBmAmqCIaiwnTPUT-43" parent="1">
          <mxGeometry width="50" height="50" relative="1" as="geometry">
            <mxPoint x="320" y="340" as="sourcePoint" />
            <mxPoint x="320" y="250" as="targetPoint" />
          </mxGeometry>
        </mxCell>
        <mxCell id="NqEcpBmAmqCIaiwnTPUT-49" value="$$\vec{h}_1^{(1)}$$" style="ellipse;whiteSpace=wrap;html=1;aspect=fixed;" vertex="1" parent="1">
          <mxGeometry x="280" y="360" width="40" height="40" as="geometry" />
        </mxCell>
        <mxCell id="NqEcpBmAmqCIaiwnTPUT-57" value="$$\hat{\vec{y}}^{(2)}$$" style="ellipse;whiteSpace=wrap;html=1;aspect=fixed;" vertex="1" parent="1">
          <mxGeometry x="360" y="200" width="40" height="40" as="geometry" />
        </mxCell>
        <mxCell id="NqEcpBmAmqCIaiwnTPUT-58" value="$$\vec{h}_2^{(2)}$$" style="ellipse;whiteSpace=wrap;html=1;aspect=fixed;" vertex="1" parent="1">
          <mxGeometry x="360" y="280" width="40" height="40" as="geometry" />
        </mxCell>
        <mxCell id="NqEcpBmAmqCIaiwnTPUT-59" value="$$\vec{X}^{(2)}$$" style="ellipse;whiteSpace=wrap;html=1;aspect=fixed;" vertex="1" parent="1">
          <mxGeometry x="360" y="440" width="40" height="40" as="geometry" />
        </mxCell>
        <mxCell id="NqEcpBmAmqCIaiwnTPUT-62" value="$$\vec{h}_1^{(2)}$$" style="ellipse;whiteSpace=wrap;html=1;aspect=fixed;" vertex="1" parent="1">
          <mxGeometry x="360" y="360" width="40" height="40" as="geometry" />
        </mxCell>
        <mxCell id="_k-G_gQxlvHIHQ_e_m6N-2" value="$$\hat{\vec{y}}^{(3)}$$" style="ellipse;whiteSpace=wrap;html=1;aspect=fixed;" vertex="1" parent="1">
          <mxGeometry x="440" y="200" width="40" height="40" as="geometry" />
        </mxCell>
        <mxCell id="_k-G_gQxlvHIHQ_e_m6N-3" value="$$\vec{h}_2^{(3)}$$" style="ellipse;whiteSpace=wrap;html=1;aspect=fixed;" vertex="1" parent="1">
          <mxGeometry x="440" y="280" width="40" height="40" as="geometry" />
        </mxCell>
        <mxCell id="_k-G_gQxlvHIHQ_e_m6N-4" value="$$\vec{X}^{(3)}$$" style="ellipse;whiteSpace=wrap;html=1;aspect=fixed;" vertex="1" parent="1">
          <mxGeometry x="440" y="440" width="40" height="40" as="geometry" />
        </mxCell>
        <mxCell id="_k-G_gQxlvHIHQ_e_m6N-6" value="$$\vec{h}_1^{(3)}$$" style="ellipse;whiteSpace=wrap;html=1;aspect=fixed;" vertex="1" parent="1">
          <mxGeometry x="440" y="360" width="40" height="40" as="geometry" />
        </mxCell>
        <mxCell id="_k-G_gQxlvHIHQ_e_m6N-10" value="$$\hat{\vec{y}}^{(4)}$$" style="ellipse;whiteSpace=wrap;html=1;aspect=fixed;" vertex="1" parent="1">
          <mxGeometry x="520" y="200" width="40" height="40" as="geometry" />
        </mxCell>
        <mxCell id="_k-G_gQxlvHIHQ_e_m6N-11" value="$$\vec{h}_2^{(4)}$$" style="ellipse;whiteSpace=wrap;html=1;aspect=fixed;" vertex="1" parent="1">
          <mxGeometry x="520" y="280" width="40" height="40" as="geometry" />
        </mxCell>
        <mxCell id="_k-G_gQxlvHIHQ_e_m6N-12" value="$$\vec{X}^{(4)}$$" style="ellipse;whiteSpace=wrap;html=1;aspect=fixed;" vertex="1" parent="1">
          <mxGeometry x="520" y="440" width="40" height="40" as="geometry" />
        </mxCell>
        <mxCell id="_k-G_gQxlvHIHQ_e_m6N-14" value="$$\vec{h}_1^{(4)}$$" style="ellipse;whiteSpace=wrap;html=1;aspect=fixed;" vertex="1" parent="1">
          <mxGeometry x="520" y="360" width="40" height="40" as="geometry" />
        </mxCell>
        <mxCell id="TWPNNen9g4Ln_031MSQN-1" value="$$\hat{\vec{y}}^{(t)}$$" style="ellipse;whiteSpace=wrap;html=1;aspect=fixed;" vertex="1" parent="1">
          <mxGeometry x="640" y="200" width="40" height="40" as="geometry" />
        </mxCell>
        <mxCell id="TWPNNen9g4Ln_031MSQN-2" value="$$\vec{h}_2^{(t)}$$" style="ellipse;whiteSpace=wrap;html=1;aspect=fixed;" vertex="1" parent="1">
          <mxGeometry x="640" y="280" width="40" height="40" as="geometry" />
        </mxCell>
        <mxCell id="TWPNNen9g4Ln_031MSQN-3" value="$$\vec{X}^{(t)}$$" style="ellipse;whiteSpace=wrap;html=1;aspect=fixed;" vertex="1" parent="1">
          <mxGeometry x="640" y="440" width="40" height="40" as="geometry" />
        </mxCell>
        <mxCell id="TWPNNen9g4Ln_031MSQN-5" value="$$\vec{h}_1^{(t)}$$" style="ellipse;whiteSpace=wrap;html=1;aspect=fixed;" vertex="1" parent="1">
          <mxGeometry x="640" y="360" width="40" height="40" as="geometry" />
        </mxCell>
        <mxCell id="TWPNNen9g4Ln_031MSQN-8" value="" style="endArrow=none;dashed=1;html=1;dashPattern=1 3;strokeWidth=2;rounded=0;" edge="1" parent="1">
          <mxGeometry width="50" height="50" relative="1" as="geometry">
            <mxPoint x="570" y="379.73" as="sourcePoint" />
            <mxPoint x="630" y="379.73" as="targetPoint" />
          </mxGeometry>
        </mxCell>
        <mxCell id="TWPNNen9g4Ln_031MSQN-9" value="" style="endArrow=blockThin;html=1;rounded=0;exitX=1;exitY=0.5;exitDx=0;exitDy=0;entryX=0;entryY=0.5;entryDx=0;entryDy=0;endFill=1;" edge="1" parent="1" source="NqEcpBmAmqCIaiwnTPUT-49" target="NqEcpBmAmqCIaiwnTPUT-62">
          <mxGeometry width="50" height="50" relative="1" as="geometry">
            <mxPoint x="470" y="360" as="sourcePoint" />
            <mxPoint x="520" y="310" as="targetPoint" />
          </mxGeometry>
        </mxCell>
        <mxCell id="TWPNNen9g4Ln_031MSQN-10" value="" style="endArrow=blockThin;html=1;rounded=0;exitX=1;exitY=0.5;exitDx=0;exitDy=0;entryX=0;entryY=0.5;entryDx=0;entryDy=0;endFill=1;" edge="1" parent="1" source="NqEcpBmAmqCIaiwnTPUT-44" target="NqEcpBmAmqCIaiwnTPUT-58">
          <mxGeometry width="50" height="50" relative="1" as="geometry">
            <mxPoint x="330" y="390" as="sourcePoint" />
            <mxPoint x="370" y="390" as="targetPoint" />
          </mxGeometry>
        </mxCell>
        <mxCell id="TWPNNen9g4Ln_031MSQN-12" value="" style="endArrow=blockThin;html=1;rounded=0;exitX=1;exitY=0.5;exitDx=0;exitDy=0;entryX=0;entryY=0.5;entryDx=0;entryDy=0;endFill=1;" edge="1" parent="1">
          <mxGeometry width="50" height="50" relative="1" as="geometry">
            <mxPoint x="400" y="379.73" as="sourcePoint" />
            <mxPoint x="440" y="379.73" as="targetPoint" />
          </mxGeometry>
        </mxCell>
        <mxCell id="TWPNNen9g4Ln_031MSQN-13" value="" style="endArrow=blockThin;html=1;rounded=0;exitX=1;exitY=0.5;exitDx=0;exitDy=0;entryX=0;entryY=0.5;entryDx=0;entryDy=0;endFill=1;" edge="1" parent="1">
          <mxGeometry width="50" height="50" relative="1" as="geometry">
            <mxPoint x="400" y="299.73" as="sourcePoint" />
            <mxPoint x="440" y="299.73" as="targetPoint" />
          </mxGeometry>
        </mxCell>
        <mxCell id="TWPNNen9g4Ln_031MSQN-14" value="" style="endArrow=blockThin;html=1;rounded=0;exitX=1;exitY=0.5;exitDx=0;exitDy=0;entryX=0;entryY=0.5;entryDx=0;entryDy=0;endFill=1;" edge="1" parent="1">
          <mxGeometry width="50" height="50" relative="1" as="geometry">
            <mxPoint x="480" y="379.73" as="sourcePoint" />
            <mxPoint x="520" y="379.73" as="targetPoint" />
          </mxGeometry>
        </mxCell>
        <mxCell id="TWPNNen9g4Ln_031MSQN-15" value="" style="endArrow=blockThin;html=1;rounded=0;exitX=1;exitY=0.5;exitDx=0;exitDy=0;entryX=0;entryY=0.5;entryDx=0;entryDy=0;endFill=1;" edge="1" parent="1">
          <mxGeometry width="50" height="50" relative="1" as="geometry">
            <mxPoint x="480" y="299.73" as="sourcePoint" />
            <mxPoint x="520" y="299.73" as="targetPoint" />
          </mxGeometry>
        </mxCell>
        <mxCell id="TWPNNen9g4Ln_031MSQN-16" value="" style="endArrow=none;dashed=1;html=1;dashPattern=1 3;strokeWidth=2;rounded=0;" edge="1" parent="1">
          <mxGeometry width="50" height="50" relative="1" as="geometry">
            <mxPoint x="570" y="299.73" as="sourcePoint" />
            <mxPoint x="630" y="299.73" as="targetPoint" />
          </mxGeometry>
        </mxCell>
        <mxCell id="TWPNNen9g4Ln_031MSQN-24" value="" style="endArrow=none;dashed=1;html=1;dashPattern=1 3;strokeWidth=2;rounded=0;" edge="1" parent="1">
          <mxGeometry width="50" height="50" relative="1" as="geometry">
            <mxPoint x="570" y="459.86" as="sourcePoint" />
            <mxPoint x="630" y="459.86" as="targetPoint" />
          </mxGeometry>
        </mxCell>
        <mxCell id="TWPNNen9g4Ln_031MSQN-25" value="" style="endArrow=none;dashed=1;html=1;dashPattern=1 3;strokeWidth=2;rounded=0;jumpStyle=none;shadow=0;" edge="1" parent="1">
          <mxGeometry width="50" height="50" relative="1" as="geometry">
            <mxPoint x="570" y="219.83999999999995" as="sourcePoint" />
            <mxPoint x="630" y="219.83999999999995" as="targetPoint" />
          </mxGeometry>
        </mxCell>
        <mxCell id="TWPNNen9g4Ln_031MSQN-26" value="" style="endArrow=none;dashed=1;html=1;dashPattern=1 3;strokeWidth=2;rounded=0;" edge="1" parent="1">
          <mxGeometry width="50" height="50" relative="1" as="geometry">
            <mxPoint x="690" y="459.67" as="sourcePoint" />
            <mxPoint x="720" y="460" as="targetPoint" />
          </mxGeometry>
        </mxCell>
        <mxCell id="TWPNNen9g4Ln_031MSQN-28" value="Unfold" style="html=1;shadow=0;dashed=0;align=center;verticalAlign=middle;shape=mxgraph.arrows2.arrow;dy=0.6;dx=40;notch=0;" vertex="1" parent="1">
          <mxGeometry x="150" y="305" width="100" height="70" as="geometry" />
        </mxCell>
        <mxCell id="TWPNNen9g4Ln_031MSQN-29" value="" style="endArrow=none;dashed=1;html=1;dashPattern=1 3;strokeWidth=2;rounded=0;" edge="1" parent="1">
          <mxGeometry width="50" height="50" relative="1" as="geometry">
            <mxPoint x="690" y="379.79" as="sourcePoint" />
            <mxPoint x="720" y="380.12" as="targetPoint" />
          </mxGeometry>
        </mxCell>
        <mxCell id="TWPNNen9g4Ln_031MSQN-30" value="" style="endArrow=none;dashed=1;html=1;dashPattern=1 3;strokeWidth=2;rounded=0;" edge="1" parent="1">
          <mxGeometry width="50" height="50" relative="1" as="geometry">
            <mxPoint x="690" y="299.79" as="sourcePoint" />
            <mxPoint x="720" y="300.12" as="targetPoint" />
          </mxGeometry>
        </mxCell>
        <mxCell id="TWPNNen9g4Ln_031MSQN-31" value="" style="endArrow=none;dashed=1;html=1;dashPattern=1 3;strokeWidth=2;rounded=0;" edge="1" parent="1">
          <mxGeometry width="50" height="50" relative="1" as="geometry">
            <mxPoint x="690" y="219.79000000000002" as="sourcePoint" />
            <mxPoint x="720" y="220.12" as="targetPoint" />
          </mxGeometry>
        </mxCell>
        <mxCell id="2kGC4i4VhYvT8179y5Aw-1" value="" style="endArrow=blockThin;html=1;rounded=0;exitX=0.5;exitY=0;exitDx=0;exitDy=0;entryX=0.5;entryY=1;entryDx=0;entryDy=0;endFill=1;" edge="1" parent="1">
          <mxGeometry width="50" height="50" relative="1" as="geometry">
            <mxPoint x="379.68" y="280" as="sourcePoint" />
            <mxPoint x="379.68" y="240" as="targetPoint" />
          </mxGeometry>
        </mxCell>
        <mxCell id="2kGC4i4VhYvT8179y5Aw-2" value="" style="endArrow=blockThin;html=1;rounded=0;exitX=0.5;exitY=0;exitDx=0;exitDy=0;entryX=0.5;entryY=1;entryDx=0;entryDy=0;endFill=1;" edge="1" parent="1">
          <mxGeometry width="50" height="50" relative="1" as="geometry">
            <mxPoint x="459.68" y="280" as="sourcePoint" />
            <mxPoint x="459.68" y="240" as="targetPoint" />
          </mxGeometry>
        </mxCell>
        <mxCell id="2kGC4i4VhYvT8179y5Aw-3" value="" style="endArrow=blockThin;html=1;rounded=0;exitX=0.5;exitY=0;exitDx=0;exitDy=0;entryX=0.5;entryY=1;entryDx=0;entryDy=0;endFill=1;" edge="1" parent="1">
          <mxGeometry width="50" height="50" relative="1" as="geometry">
            <mxPoint x="659.6800000000001" y="280" as="sourcePoint" />
            <mxPoint x="659.6800000000001" y="240" as="targetPoint" />
          </mxGeometry>
        </mxCell>
        <mxCell id="2kGC4i4VhYvT8179y5Aw-4" value="" style="endArrow=blockThin;html=1;rounded=0;exitX=0.5;exitY=0;exitDx=0;exitDy=0;entryX=0.5;entryY=1;entryDx=0;entryDy=0;endFill=1;" edge="1" parent="1">
          <mxGeometry width="50" height="50" relative="1" as="geometry">
            <mxPoint x="539.6800000000001" y="280" as="sourcePoint" />
            <mxPoint x="539.6800000000001" y="240" as="targetPoint" />
          </mxGeometry>
        </mxCell>
        <mxCell id="2kGC4i4VhYvT8179y5Aw-5" value="" style="endArrow=blockThin;html=1;rounded=0;exitX=0.5;exitY=0;exitDx=0;exitDy=0;entryX=0.5;entryY=1;entryDx=0;entryDy=0;endFill=1;" edge="1" parent="1">
          <mxGeometry width="50" height="50" relative="1" as="geometry">
            <mxPoint x="300" y="440" as="sourcePoint" />
            <mxPoint x="300" y="400" as="targetPoint" />
          </mxGeometry>
        </mxCell>
        <mxCell id="2kGC4i4VhYvT8179y5Aw-6" value="" style="endArrow=blockThin;html=1;rounded=0;exitX=0.5;exitY=0;exitDx=0;exitDy=0;entryX=0.5;entryY=1;entryDx=0;entryDy=0;endFill=1;" edge="1" parent="1">
          <mxGeometry width="50" height="50" relative="1" as="geometry">
            <mxPoint x="379.68" y="440" as="sourcePoint" />
            <mxPoint x="379.68" y="400" as="targetPoint" />
          </mxGeometry>
        </mxCell>
        <mxCell id="2kGC4i4VhYvT8179y5Aw-7" value="" style="endArrow=blockThin;html=1;rounded=0;exitX=0.5;exitY=0;exitDx=0;exitDy=0;entryX=0.5;entryY=1;entryDx=0;entryDy=0;endFill=1;" edge="1" parent="1">
          <mxGeometry width="50" height="50" relative="1" as="geometry">
            <mxPoint x="459.68" y="440" as="sourcePoint" />
            <mxPoint x="459.68" y="400" as="targetPoint" />
          </mxGeometry>
        </mxCell>
        <mxCell id="2kGC4i4VhYvT8179y5Aw-8" value="" style="endArrow=blockThin;html=1;rounded=0;exitX=0.5;exitY=0;exitDx=0;exitDy=0;entryX=0.5;entryY=1;entryDx=0;entryDy=0;endFill=1;" edge="1" parent="1">
          <mxGeometry width="50" height="50" relative="1" as="geometry">
            <mxPoint x="659.6800000000001" y="440" as="sourcePoint" />
            <mxPoint x="659.6800000000001" y="400" as="targetPoint" />
          </mxGeometry>
        </mxCell>
        <mxCell id="2kGC4i4VhYvT8179y5Aw-9" value="" style="endArrow=blockThin;html=1;rounded=0;exitX=0.5;exitY=0;exitDx=0;exitDy=0;entryX=0.5;entryY=1;entryDx=0;entryDy=0;endFill=1;" edge="1" parent="1">
          <mxGeometry width="50" height="50" relative="1" as="geometry">
            <mxPoint x="539.6800000000001" y="440" as="sourcePoint" />
            <mxPoint x="539.6800000000001" y="400" as="targetPoint" />
          </mxGeometry>
        </mxCell>
        <mxCell id="2kGC4i4VhYvT8179y5Aw-10" value="" style="endArrow=blockThin;html=1;rounded=0;exitX=0.5;exitY=0;exitDx=0;exitDy=0;entryX=0.5;entryY=1;entryDx=0;entryDy=0;endFill=1;" edge="1" parent="1">
          <mxGeometry width="50" height="50" relative="1" as="geometry">
            <mxPoint x="300" y="360" as="sourcePoint" />
            <mxPoint x="300" y="320" as="targetPoint" />
          </mxGeometry>
        </mxCell>
        <mxCell id="2kGC4i4VhYvT8179y5Aw-11" value="" style="endArrow=blockThin;html=1;rounded=0;exitX=0.5;exitY=0;exitDx=0;exitDy=0;entryX=0.5;entryY=1;entryDx=0;entryDy=0;endFill=1;" edge="1" parent="1">
          <mxGeometry width="50" height="50" relative="1" as="geometry">
            <mxPoint x="379.68" y="360" as="sourcePoint" />
            <mxPoint x="379.68" y="320" as="targetPoint" />
          </mxGeometry>
        </mxCell>
        <mxCell id="2kGC4i4VhYvT8179y5Aw-12" value="" style="endArrow=blockThin;html=1;rounded=0;exitX=0.5;exitY=0;exitDx=0;exitDy=0;entryX=0.5;entryY=1;entryDx=0;entryDy=0;endFill=1;" edge="1" parent="1">
          <mxGeometry width="50" height="50" relative="1" as="geometry">
            <mxPoint x="459.68" y="360" as="sourcePoint" />
            <mxPoint x="459.68" y="320" as="targetPoint" />
          </mxGeometry>
        </mxCell>
        <mxCell id="2kGC4i4VhYvT8179y5Aw-13" value="" style="endArrow=blockThin;html=1;rounded=0;exitX=0.5;exitY=0;exitDx=0;exitDy=0;entryX=0.5;entryY=1;entryDx=0;entryDy=0;endFill=1;" edge="1" parent="1">
          <mxGeometry width="50" height="50" relative="1" as="geometry">
            <mxPoint x="659.6800000000001" y="360" as="sourcePoint" />
            <mxPoint x="659.6800000000001" y="320" as="targetPoint" />
          </mxGeometry>
        </mxCell>
        <mxCell id="2kGC4i4VhYvT8179y5Aw-14" value="" style="endArrow=blockThin;html=1;rounded=0;exitX=0.5;exitY=0;exitDx=0;exitDy=0;entryX=0.5;entryY=1;entryDx=0;entryDy=0;endFill=1;" edge="1" parent="1">
          <mxGeometry width="50" height="50" relative="1" as="geometry">
            <mxPoint x="539.6800000000001" y="360" as="sourcePoint" />
            <mxPoint x="539.6800000000001" y="320" as="targetPoint" />
          </mxGeometry>
        </mxCell>
      </root>
    </mxGraphModel>
  </diagram>
  <diagram id="WBhBBFHKuAFT1UNdkSsg" name="Page-4">
    <mxGraphModel dx="937" dy="628" grid="1" gridSize="10" guides="1" tooltips="1" connect="1" arrows="1" fold="1" page="1" pageScale="1" pageWidth="827" pageHeight="1169" math="1" shadow="0">
      <root>
        <mxCell id="0" />
        <mxCell id="1" parent="0" />
        <mxCell id="KcbARXTv8cgkerGYZ7qX-1" value="" style="rounded=1;whiteSpace=wrap;html=1;fillColor=#ffe6cc;strokeColor=#d79b00;dashed=1;dashPattern=12 12;" vertex="1" parent="1">
          <mxGeometry x="184" y="270" width="460" height="140" as="geometry" />
        </mxCell>
        <mxCell id="KcbARXTv8cgkerGYZ7qX-2" value="" style="rounded=1;whiteSpace=wrap;html=1;fillColor=#dae8fc;strokeColor=#6c8ebf;" vertex="1" parent="1">
          <mxGeometry x="184" y="430" width="460" height="60" as="geometry" />
        </mxCell>
        <mxCell id="KcbARXTv8cgkerGYZ7qX-3" value="" style="rounded=1;whiteSpace=wrap;html=1;fillColor=#d5e8d4;strokeColor=default;fillStyle=solid;fixDash=0;" vertex="1" parent="1">
          <mxGeometry x="184" y="190" width="460" height="60" as="geometry" />
        </mxCell>
        <mxCell id="KcbARXTv8cgkerGYZ7qX-4" value="$$\hat{\vec{y}}^{(1)}$$" style="ellipse;whiteSpace=wrap;html=1;aspect=fixed;" vertex="1" parent="1">
          <mxGeometry x="194" y="200" width="40" height="40" as="geometry" />
        </mxCell>
        <mxCell id="KcbARXTv8cgkerGYZ7qX-5" value="$$\vec{h}_2^{(1)}$$" style="ellipse;whiteSpace=wrap;html=1;aspect=fixed;" vertex="1" parent="1">
          <mxGeometry x="194" y="280" width="40" height="40" as="geometry" />
        </mxCell>
        <mxCell id="KcbARXTv8cgkerGYZ7qX-6" value="$$\vec{X}^{(1)}$$" style="ellipse;whiteSpace=wrap;html=1;aspect=fixed;" vertex="1" parent="1">
          <mxGeometry x="194" y="440" width="40" height="40" as="geometry" />
        </mxCell>
        <mxCell id="KcbARXTv8cgkerGYZ7qX-7" value="" style="endArrow=blockThin;html=1;rounded=0;exitX=0.5;exitY=0;exitDx=0;exitDy=0;entryX=0.5;entryY=1;entryDx=0;entryDy=0;endFill=1;" edge="1" parent="1" source="KcbARXTv8cgkerGYZ7qX-5" target="KcbARXTv8cgkerGYZ7qX-4">
          <mxGeometry width="50" height="50" relative="1" as="geometry">
            <mxPoint x="234" y="340" as="sourcePoint" />
            <mxPoint x="234" y="250" as="targetPoint" />
          </mxGeometry>
        </mxCell>
        <mxCell id="KcbARXTv8cgkerGYZ7qX-8" value="$$\vec{h}_1^{(1)}$$" style="ellipse;whiteSpace=wrap;html=1;aspect=fixed;" vertex="1" parent="1">
          <mxGeometry x="194" y="360" width="40" height="40" as="geometry" />
        </mxCell>
        <mxCell id="KcbARXTv8cgkerGYZ7qX-9" value="$$\hat{\vec{y}}^{(2)}$$" style="ellipse;whiteSpace=wrap;html=1;aspect=fixed;" vertex="1" parent="1">
          <mxGeometry x="274" y="200" width="40" height="40" as="geometry" />
        </mxCell>
        <mxCell id="KcbARXTv8cgkerGYZ7qX-10" value="$$\vec{h}_2^{(2)}$$" style="ellipse;whiteSpace=wrap;html=1;aspect=fixed;" vertex="1" parent="1">
          <mxGeometry x="274" y="280" width="40" height="40" as="geometry" />
        </mxCell>
        <mxCell id="KcbARXTv8cgkerGYZ7qX-11" value="$$\vec{X}^{(2)}$$" style="ellipse;whiteSpace=wrap;html=1;aspect=fixed;" vertex="1" parent="1">
          <mxGeometry x="274" y="440" width="40" height="40" as="geometry" />
        </mxCell>
        <mxCell id="KcbARXTv8cgkerGYZ7qX-12" value="$$\vec{h}_1^{(2)}$$" style="ellipse;whiteSpace=wrap;html=1;aspect=fixed;" vertex="1" parent="1">
          <mxGeometry x="274" y="360" width="40" height="40" as="geometry" />
        </mxCell>
        <mxCell id="KcbARXTv8cgkerGYZ7qX-13" value="$$\hat{\vec{y}}^{(3)}$$" style="ellipse;whiteSpace=wrap;html=1;aspect=fixed;" vertex="1" parent="1">
          <mxGeometry x="354" y="200" width="40" height="40" as="geometry" />
        </mxCell>
        <mxCell id="KcbARXTv8cgkerGYZ7qX-14" value="$$\vec{h}_2^{(3)}$$" style="ellipse;whiteSpace=wrap;html=1;aspect=fixed;" vertex="1" parent="1">
          <mxGeometry x="354" y="280" width="40" height="40" as="geometry" />
        </mxCell>
        <mxCell id="KcbARXTv8cgkerGYZ7qX-15" value="$$\vec{X}^{(3)}$$" style="ellipse;whiteSpace=wrap;html=1;aspect=fixed;" vertex="1" parent="1">
          <mxGeometry x="354" y="440" width="40" height="40" as="geometry" />
        </mxCell>
        <mxCell id="KcbARXTv8cgkerGYZ7qX-16" value="$$\vec{h}_1^{(3)}$$" style="ellipse;whiteSpace=wrap;html=1;aspect=fixed;" vertex="1" parent="1">
          <mxGeometry x="354" y="360" width="40" height="40" as="geometry" />
        </mxCell>
        <mxCell id="KcbARXTv8cgkerGYZ7qX-17" value="$$\hat{\vec{y}}^{(4)}$$" style="ellipse;whiteSpace=wrap;html=1;aspect=fixed;" vertex="1" parent="1">
          <mxGeometry x="434" y="200" width="40" height="40" as="geometry" />
        </mxCell>
        <mxCell id="KcbARXTv8cgkerGYZ7qX-18" value="$$\vec{h}_2^{(4)}$$" style="ellipse;whiteSpace=wrap;html=1;aspect=fixed;" vertex="1" parent="1">
          <mxGeometry x="434" y="280" width="40" height="40" as="geometry" />
        </mxCell>
        <mxCell id="KcbARXTv8cgkerGYZ7qX-19" value="$$\vec{X}^{(4)}$$" style="ellipse;whiteSpace=wrap;html=1;aspect=fixed;" vertex="1" parent="1">
          <mxGeometry x="434" y="440" width="40" height="40" as="geometry" />
        </mxCell>
        <mxCell id="KcbARXTv8cgkerGYZ7qX-20" value="$$\vec{h}_1^{(4)}$$" style="ellipse;whiteSpace=wrap;html=1;aspect=fixed;" vertex="1" parent="1">
          <mxGeometry x="434" y="360" width="40" height="40" as="geometry" />
        </mxCell>
        <mxCell id="KcbARXTv8cgkerGYZ7qX-21" value="$$\hat{\vec{y}}^{(t)}$$" style="ellipse;whiteSpace=wrap;html=1;aspect=fixed;" vertex="1" parent="1">
          <mxGeometry x="554" y="200" width="40" height="40" as="geometry" />
        </mxCell>
        <mxCell id="KcbARXTv8cgkerGYZ7qX-22" value="$$\vec{h}_2^{(t)}$$" style="ellipse;whiteSpace=wrap;html=1;aspect=fixed;" vertex="1" parent="1">
          <mxGeometry x="554" y="280" width="40" height="40" as="geometry" />
        </mxCell>
        <mxCell id="KcbARXTv8cgkerGYZ7qX-23" value="$$\vec{X}^{(t)}$$" style="ellipse;whiteSpace=wrap;html=1;aspect=fixed;" vertex="1" parent="1">
          <mxGeometry x="554" y="440" width="40" height="40" as="geometry" />
        </mxCell>
        <mxCell id="KcbARXTv8cgkerGYZ7qX-24" value="$$\vec{h}_1^{(t)}$$" style="ellipse;whiteSpace=wrap;html=1;aspect=fixed;" vertex="1" parent="1">
          <mxGeometry x="554" y="360" width="40" height="40" as="geometry" />
        </mxCell>
        <mxCell id="KcbARXTv8cgkerGYZ7qX-25" value="" style="endArrow=none;dashed=1;html=1;dashPattern=1 3;strokeWidth=2;rounded=0;" edge="1" parent="1">
          <mxGeometry width="50" height="50" relative="1" as="geometry">
            <mxPoint x="484" y="379.73" as="sourcePoint" />
            <mxPoint x="544" y="379.73" as="targetPoint" />
          </mxGeometry>
        </mxCell>
        <mxCell id="KcbARXTv8cgkerGYZ7qX-26" value="" style="endArrow=blockThin;html=1;rounded=0;exitX=1;exitY=0.5;exitDx=0;exitDy=0;entryX=0;entryY=0.5;entryDx=0;entryDy=0;endFill=1;" edge="1" parent="1" source="KcbARXTv8cgkerGYZ7qX-8" target="KcbARXTv8cgkerGYZ7qX-12">
          <mxGeometry width="50" height="50" relative="1" as="geometry">
            <mxPoint x="384" y="360" as="sourcePoint" />
            <mxPoint x="434" y="310" as="targetPoint" />
          </mxGeometry>
        </mxCell>
        <mxCell id="KcbARXTv8cgkerGYZ7qX-27" value="" style="endArrow=blockThin;html=1;rounded=0;exitX=1;exitY=0.5;exitDx=0;exitDy=0;entryX=0;entryY=0.5;entryDx=0;entryDy=0;endFill=1;" edge="1" parent="1" source="KcbARXTv8cgkerGYZ7qX-5" target="KcbARXTv8cgkerGYZ7qX-10">
          <mxGeometry width="50" height="50" relative="1" as="geometry">
            <mxPoint x="244" y="390" as="sourcePoint" />
            <mxPoint x="284" y="390" as="targetPoint" />
          </mxGeometry>
        </mxCell>
        <mxCell id="KcbARXTv8cgkerGYZ7qX-28" value="" style="endArrow=blockThin;html=1;rounded=0;exitX=1;exitY=0.5;exitDx=0;exitDy=0;entryX=0;entryY=0.5;entryDx=0;entryDy=0;endFill=1;" edge="1" parent="1">
          <mxGeometry width="50" height="50" relative="1" as="geometry">
            <mxPoint x="314" y="379.73" as="sourcePoint" />
            <mxPoint x="354" y="379.73" as="targetPoint" />
          </mxGeometry>
        </mxCell>
        <mxCell id="KcbARXTv8cgkerGYZ7qX-29" value="" style="endArrow=blockThin;html=1;rounded=0;exitX=1;exitY=0.5;exitDx=0;exitDy=0;entryX=0;entryY=0.5;entryDx=0;entryDy=0;endFill=1;" edge="1" parent="1">
          <mxGeometry width="50" height="50" relative="1" as="geometry">
            <mxPoint x="314" y="299.73" as="sourcePoint" />
            <mxPoint x="354" y="299.73" as="targetPoint" />
          </mxGeometry>
        </mxCell>
        <mxCell id="KcbARXTv8cgkerGYZ7qX-30" value="" style="endArrow=blockThin;html=1;rounded=0;exitX=1;exitY=0.5;exitDx=0;exitDy=0;entryX=0;entryY=0.5;entryDx=0;entryDy=0;endFill=1;" edge="1" parent="1">
          <mxGeometry width="50" height="50" relative="1" as="geometry">
            <mxPoint x="394" y="379.73" as="sourcePoint" />
            <mxPoint x="434" y="379.73" as="targetPoint" />
          </mxGeometry>
        </mxCell>
        <mxCell id="KcbARXTv8cgkerGYZ7qX-31" value="" style="endArrow=blockThin;html=1;rounded=0;exitX=1;exitY=0.5;exitDx=0;exitDy=0;entryX=0;entryY=0.5;entryDx=0;entryDy=0;endFill=1;" edge="1" parent="1">
          <mxGeometry width="50" height="50" relative="1" as="geometry">
            <mxPoint x="394" y="299.73" as="sourcePoint" />
            <mxPoint x="434" y="299.73" as="targetPoint" />
          </mxGeometry>
        </mxCell>
        <mxCell id="KcbARXTv8cgkerGYZ7qX-32" value="" style="endArrow=none;dashed=1;html=1;dashPattern=1 3;strokeWidth=2;rounded=0;" edge="1" parent="1">
          <mxGeometry width="50" height="50" relative="1" as="geometry">
            <mxPoint x="484" y="299.73" as="sourcePoint" />
            <mxPoint x="544" y="299.73" as="targetPoint" />
          </mxGeometry>
        </mxCell>
        <mxCell id="KcbARXTv8cgkerGYZ7qX-33" value="" style="endArrow=none;dashed=1;html=1;dashPattern=1 3;strokeWidth=2;rounded=0;" edge="1" parent="1">
          <mxGeometry width="50" height="50" relative="1" as="geometry">
            <mxPoint x="484" y="459.86" as="sourcePoint" />
            <mxPoint x="544" y="459.86" as="targetPoint" />
          </mxGeometry>
        </mxCell>
        <mxCell id="KcbARXTv8cgkerGYZ7qX-34" value="" style="endArrow=none;dashed=1;html=1;dashPattern=1 3;strokeWidth=2;rounded=0;jumpStyle=none;shadow=0;" edge="1" parent="1">
          <mxGeometry width="50" height="50" relative="1" as="geometry">
            <mxPoint x="484" y="219.83999999999995" as="sourcePoint" />
            <mxPoint x="544" y="219.83999999999995" as="targetPoint" />
          </mxGeometry>
        </mxCell>
        <mxCell id="KcbARXTv8cgkerGYZ7qX-35" value="" style="endArrow=none;dashed=1;html=1;dashPattern=1 3;strokeWidth=2;rounded=0;" edge="1" parent="1">
          <mxGeometry width="50" height="50" relative="1" as="geometry">
            <mxPoint x="604" y="459.67" as="sourcePoint" />
            <mxPoint x="634" y="460" as="targetPoint" />
          </mxGeometry>
        </mxCell>
        <mxCell id="KcbARXTv8cgkerGYZ7qX-36" value="" style="endArrow=none;dashed=1;html=1;dashPattern=1 3;strokeWidth=2;rounded=0;" edge="1" parent="1">
          <mxGeometry width="50" height="50" relative="1" as="geometry">
            <mxPoint x="604" y="379.79" as="sourcePoint" />
            <mxPoint x="634" y="380.12" as="targetPoint" />
          </mxGeometry>
        </mxCell>
        <mxCell id="KcbARXTv8cgkerGYZ7qX-37" value="" style="endArrow=none;dashed=1;html=1;dashPattern=1 3;strokeWidth=2;rounded=0;" edge="1" parent="1">
          <mxGeometry width="50" height="50" relative="1" as="geometry">
            <mxPoint x="604" y="299.79" as="sourcePoint" />
            <mxPoint x="634" y="300.12" as="targetPoint" />
          </mxGeometry>
        </mxCell>
        <mxCell id="KcbARXTv8cgkerGYZ7qX-38" value="" style="endArrow=none;dashed=1;html=1;dashPattern=1 3;strokeWidth=2;rounded=0;" edge="1" parent="1">
          <mxGeometry width="50" height="50" relative="1" as="geometry">
            <mxPoint x="604" y="219.79000000000002" as="sourcePoint" />
            <mxPoint x="634" y="220.12" as="targetPoint" />
          </mxGeometry>
        </mxCell>
        <mxCell id="KcbARXTv8cgkerGYZ7qX-39" value="" style="endArrow=blockThin;html=1;rounded=0;exitX=0.5;exitY=0;exitDx=0;exitDy=0;entryX=0.5;entryY=1;entryDx=0;entryDy=0;endFill=1;" edge="1" parent="1">
          <mxGeometry width="50" height="50" relative="1" as="geometry">
            <mxPoint x="293.68" y="280" as="sourcePoint" />
            <mxPoint x="293.68" y="240" as="targetPoint" />
          </mxGeometry>
        </mxCell>
        <mxCell id="KcbARXTv8cgkerGYZ7qX-40" value="" style="endArrow=blockThin;html=1;rounded=0;exitX=0.5;exitY=0;exitDx=0;exitDy=0;entryX=0.5;entryY=1;entryDx=0;entryDy=0;endFill=1;" edge="1" parent="1">
          <mxGeometry width="50" height="50" relative="1" as="geometry">
            <mxPoint x="373.68" y="280" as="sourcePoint" />
            <mxPoint x="373.68" y="240" as="targetPoint" />
          </mxGeometry>
        </mxCell>
        <mxCell id="KcbARXTv8cgkerGYZ7qX-41" value="" style="endArrow=blockThin;html=1;rounded=0;exitX=0.5;exitY=0;exitDx=0;exitDy=0;entryX=0.5;entryY=1;entryDx=0;entryDy=0;endFill=1;" edge="1" parent="1">
          <mxGeometry width="50" height="50" relative="1" as="geometry">
            <mxPoint x="573.6800000000001" y="280" as="sourcePoint" />
            <mxPoint x="573.6800000000001" y="240" as="targetPoint" />
          </mxGeometry>
        </mxCell>
        <mxCell id="KcbARXTv8cgkerGYZ7qX-42" value="" style="endArrow=blockThin;html=1;rounded=0;exitX=0.5;exitY=0;exitDx=0;exitDy=0;entryX=0.5;entryY=1;entryDx=0;entryDy=0;endFill=1;" edge="1" parent="1">
          <mxGeometry width="50" height="50" relative="1" as="geometry">
            <mxPoint x="453.68000000000006" y="280" as="sourcePoint" />
            <mxPoint x="453.68000000000006" y="240" as="targetPoint" />
          </mxGeometry>
        </mxCell>
        <mxCell id="KcbARXTv8cgkerGYZ7qX-43" value="" style="endArrow=blockThin;html=1;rounded=0;exitX=0.5;exitY=0;exitDx=0;exitDy=0;entryX=0.5;entryY=1;entryDx=0;entryDy=0;endFill=1;" edge="1" parent="1">
          <mxGeometry width="50" height="50" relative="1" as="geometry">
            <mxPoint x="214" y="440" as="sourcePoint" />
            <mxPoint x="214" y="400" as="targetPoint" />
          </mxGeometry>
        </mxCell>
        <mxCell id="KcbARXTv8cgkerGYZ7qX-44" value="" style="endArrow=blockThin;html=1;rounded=0;exitX=0.5;exitY=0;exitDx=0;exitDy=0;entryX=0.5;entryY=1;entryDx=0;entryDy=0;endFill=1;" edge="1" parent="1">
          <mxGeometry width="50" height="50" relative="1" as="geometry">
            <mxPoint x="293.68" y="440" as="sourcePoint" />
            <mxPoint x="293.68" y="400" as="targetPoint" />
          </mxGeometry>
        </mxCell>
        <mxCell id="KcbARXTv8cgkerGYZ7qX-45" value="" style="endArrow=blockThin;html=1;rounded=0;exitX=0.5;exitY=0;exitDx=0;exitDy=0;entryX=0.5;entryY=1;entryDx=0;entryDy=0;endFill=1;" edge="1" parent="1">
          <mxGeometry width="50" height="50" relative="1" as="geometry">
            <mxPoint x="373.68" y="440" as="sourcePoint" />
            <mxPoint x="373.68" y="400" as="targetPoint" />
          </mxGeometry>
        </mxCell>
        <mxCell id="KcbARXTv8cgkerGYZ7qX-46" value="" style="endArrow=blockThin;html=1;rounded=0;exitX=0.5;exitY=0;exitDx=0;exitDy=0;entryX=0.5;entryY=1;entryDx=0;entryDy=0;endFill=1;" edge="1" parent="1">
          <mxGeometry width="50" height="50" relative="1" as="geometry">
            <mxPoint x="573.6800000000001" y="440" as="sourcePoint" />
            <mxPoint x="573.6800000000001" y="400" as="targetPoint" />
          </mxGeometry>
        </mxCell>
        <mxCell id="KcbARXTv8cgkerGYZ7qX-47" value="" style="endArrow=blockThin;html=1;rounded=0;exitX=0.5;exitY=0;exitDx=0;exitDy=0;entryX=0.5;entryY=1;entryDx=0;entryDy=0;endFill=1;" edge="1" parent="1">
          <mxGeometry width="50" height="50" relative="1" as="geometry">
            <mxPoint x="453.68000000000006" y="440" as="sourcePoint" />
            <mxPoint x="453.68000000000006" y="400" as="targetPoint" />
          </mxGeometry>
        </mxCell>
        <mxCell id="KcbARXTv8cgkerGYZ7qX-48" value="" style="endArrow=blockThin;html=1;rounded=0;exitX=0.5;exitY=0;exitDx=0;exitDy=0;entryX=0.5;entryY=1;entryDx=0;entryDy=0;endFill=1;" edge="1" parent="1">
          <mxGeometry width="50" height="50" relative="1" as="geometry">
            <mxPoint x="214" y="360" as="sourcePoint" />
            <mxPoint x="214" y="320" as="targetPoint" />
          </mxGeometry>
        </mxCell>
        <mxCell id="KcbARXTv8cgkerGYZ7qX-49" value="" style="endArrow=blockThin;html=1;rounded=0;exitX=0.5;exitY=0;exitDx=0;exitDy=0;entryX=0.5;entryY=1;entryDx=0;entryDy=0;endFill=1;" edge="1" parent="1">
          <mxGeometry width="50" height="50" relative="1" as="geometry">
            <mxPoint x="293.68" y="360" as="sourcePoint" />
            <mxPoint x="293.68" y="320" as="targetPoint" />
          </mxGeometry>
        </mxCell>
        <mxCell id="KcbARXTv8cgkerGYZ7qX-50" value="" style="endArrow=blockThin;html=1;rounded=0;exitX=0.5;exitY=0;exitDx=0;exitDy=0;entryX=0.5;entryY=1;entryDx=0;entryDy=0;endFill=1;" edge="1" parent="1">
          <mxGeometry width="50" height="50" relative="1" as="geometry">
            <mxPoint x="373.68" y="360" as="sourcePoint" />
            <mxPoint x="373.68" y="320" as="targetPoint" />
          </mxGeometry>
        </mxCell>
        <mxCell id="KcbARXTv8cgkerGYZ7qX-51" value="" style="endArrow=blockThin;html=1;rounded=0;exitX=0.5;exitY=0;exitDx=0;exitDy=0;entryX=0.5;entryY=1;entryDx=0;entryDy=0;endFill=1;" edge="1" parent="1">
          <mxGeometry width="50" height="50" relative="1" as="geometry">
            <mxPoint x="573.6800000000001" y="360" as="sourcePoint" />
            <mxPoint x="573.6800000000001" y="320" as="targetPoint" />
          </mxGeometry>
        </mxCell>
        <mxCell id="KcbARXTv8cgkerGYZ7qX-52" value="" style="endArrow=blockThin;html=1;rounded=0;exitX=0.5;exitY=0;exitDx=0;exitDy=0;entryX=0.5;entryY=1;entryDx=0;entryDy=0;endFill=1;" edge="1" parent="1">
          <mxGeometry width="50" height="50" relative="1" as="geometry">
            <mxPoint x="453.68000000000006" y="360" as="sourcePoint" />
            <mxPoint x="453.68000000000006" y="320" as="targetPoint" />
          </mxGeometry>
        </mxCell>
      </root>
    </mxGraphModel>
  </diagram>
</mxfile>
